<svg xmlns="http://www.w3.org/2000/svg" width="24" height="24" viewBox="0 0 24 24">
    <path d="M4.5 19.8085V9.91492H16.5V10.9043C17.2 10.9043 17.87 11.0032 18.5 11.1912V9.91492C18.5 8.82662 17.6 7.9362 16.5 7.9362H15.5V5.95747C15.5 3.22684 13.26 1.01067 10.5 1.01067C7.74 1.01067 5.5 3.22684 5.5 5.95747V7.9362H4.5C3.4 7.9362 2.5 8.82662 2.5 9.91492V19.8085C2.5 20.8968 3.4 21.7873 4.5 21.7873H10.76C10.34 21.1936 10.01 20.5209 9.79 19.8085H4.5ZM7.5 5.95747C7.5 4.31513 8.84 2.98939 10.5 2.98939C12.16 2.98939 13.5 4.31513 13.5 5.95747V7.9362H7.5V5.95747Z"/>
    <path d="M16.5 12.883C13.74 12.883 11.5 15.0992 11.5 17.8298C11.5 20.5605 13.74 22.7766 16.5 22.7766C19.26 22.7766 21.5 20.5605 21.5 17.8298C21.5 15.0992 19.26 12.883 16.5 12.883ZM16.5 14.8617C17.33 14.8617 18 15.5246 18 16.3458C18 17.1669 17.33 17.8298 16.5 17.8298C15.67 17.8298 15 17.1669 15 16.3458C15 15.5246 15.67 14.8617 16.5 14.8617ZM16.5 20.7979C15.47 20.7979 14.56 20.2834 14.02 19.4919C14.75 19.0764 15.59 18.8192 16.5 18.8192C17.41 18.8192 18.25 19.0764 18.98 19.4919C18.44 20.2834 17.53 20.7979 16.5 20.7979Z"/>
</svg>