<svg xmlns="http://www.w3.org/2000/svg" width="24" height="25" viewBox="0 0 24 25">
    <path d="M11.99 2.51065C6.47 2.51065 2 6.94299 2 12.4043C2 17.8655 6.47 22.2979 11.99 22.2979C17.52 22.2979 22 17.8655 22 12.4043C22 6.94299 17.52 2.51065 11.99 2.51065ZM18.92 8.44682H15.97C15.65 7.21012 15.19 6.02288 14.59 4.92469C16.43 5.54799 17.96 6.81437 18.92 8.44682ZM12 4.52895C12.83 5.71618 13.48 7.03203 13.91 8.44682H10.09C10.52 7.03203 11.17 5.71618 12 4.52895ZM4.26 14.383C4.1 13.7498 4 13.0869 4 12.4043C4 11.7216 4.1 11.0587 4.26 10.4255H7.64C7.56 11.0785 7.5 11.7315 7.5 12.4043C7.5 13.077 7.56 13.73 7.64 14.383H4.26ZM5.08 16.3617H8.03C8.35 17.5984 8.81 18.7856 9.41 19.8838C7.57 19.2605 6.04 18.0041 5.08 16.3617ZM8.03 8.44682H5.08C6.04 6.80448 7.57 5.54799 9.41 4.92469C8.81 6.02288 8.35 7.21012 8.03 8.44682ZM12 20.2796C11.17 19.0924 10.52 17.7765 10.09 16.3617H13.91C13.48 17.7765 12.83 19.0924 12 20.2796ZM14.34 14.383H9.66C9.57 13.73 9.5 13.077 9.5 12.4043C9.5 11.7315 9.57 11.0686 9.66 10.4255H14.34C14.43 11.0686 14.5 11.7315 14.5 12.4043C14.5 13.077 14.43 13.73 14.34 14.383ZM14.59 19.8838C15.19 18.7856 15.65 17.5984 15.97 16.3617H18.92C17.96 17.9942 16.43 19.2605 14.59 19.8838ZM16.36 14.383C16.44 13.73 16.5 13.077 16.5 12.4043C16.5 11.7315 16.44 11.0785 16.36 10.4255H19.74C19.9 11.0587 20 11.7216 20 12.4043C20 13.0869 19.9 13.7498 19.74 14.383H16.36Z"/>
</svg>